<?xml version="1.0" encoding="iso-8859-1"?>
<!-- Generator: Adobe Illustrator 16.0.0, SVG Export Plug-In . SVG Version: 6.00 Build 0)  -->
<!DOCTYPE svg PUBLIC "-//W3C//DTD SVG 1.1//EN" "http://www.w3.org/Graphics/SVG/1.1/DTD/svg11.dtd">
<svg version="1.1" id="Capa_1" xmlns="http://www.w3.org/2000/svg" xmlns:xlink="http://www.w3.org/1999/xlink" x="0px" y="0px"
	 width="447.803px" height="447.803px" viewBox="0 0 447.803 447.803" style="enable-background:new 0 0 447.803 447.803;"
	 xml:space="preserve">
<g>
	<path d="M431.417,0H208.408c-8.414,0-15.26,6.846-15.26,15.26v97.256H18.712c-9.713,0-17.586,7.873-17.586,17.584v300.117
		c0,9.713,7.874,17.586,17.586,17.586h300.117c9.711,0,17.584-7.873,17.584-17.586V245.158h95.004c8.414,0,15.26-6.846,15.26-15.26
		V15.259C446.679,6.845,439.833,0,431.417,0z M223.668,30.61h80.144V71.7h-80.144V30.61z M223.668,101.943h80.144v41.09h-80.144
		V101.943z M223.668,173.552h80.144v41.088h-80.144V173.552z M301.243,412.633H36.296V147.685h156.853v77.732l-48.642,48.644
		l-18.91-18.91c-1.9-1.9-4.668-2.642-7.262-1.945c-2.594,0.693-4.621,2.721-5.314,5.316l-25.512,95.227
		c-0.693,2.594,0.047,5.361,1.946,7.26c1.43,1.43,3.35,2.203,5.316,2.203c0.648,0,1.303-0.084,1.945-0.258l95.226-25.508
		c2.596-0.695,4.622-2.724,5.316-5.316c0.696-2.594-0.046-5.361-1.945-7.262l-18.911-18.912l60.798-60.797h64.043V412.633z
		 M416.159,214.64h-80.145v-41.088h80.145V214.64z M416.159,143.033h-80.145v-41.09h80.145V143.033z M416.159,71.7h-80.145V30.61
		h80.145V71.7z"/>
</g>
<g>
</g>
<g>
</g>
<g>
</g>
<g>
</g>
<g>
</g>
<g>
</g>
<g>
</g>
<g>
</g>
<g>
</g>
<g>
</g>
<g>
</g>
<g>
</g>
<g>
</g>
<g>
</g>
<g>
</g>
</svg>
